<?xml version="1.0" encoding="UTF-8" standalone="no"?>
<svg width="400px" height="600px" viewBox="0 0 400 600" version="1.1" xmlns="http://www.w3.org/2000/svg" xmlns:xlink="http://www.w3.org/1999/xlink" xmlns:sketch="http://www.bohemiancoding.com/sketch/ns">
    <title>sprite_global</title>
    <description>Created with Sketch (http://www.bohemiancoding.com/sketch)</description>
    <defs></defs>
    <g id="Page 1" stroke="none" stroke-width="1" fill="none" fill-rule="evenodd">
        <g id="sprite_global">
            <g id="Group" transform="translate(0.000000, 400.000000)" fill="#000000">
                <path d="M0,0 L0,7 L34,7 L34,0 L0,0 Z M0,0" id="Rectangle 1"></path>
                <path d="M0,10.5 L0,17.5 L34,17.5 L34,10.5 L0,10.5 Z M0,10.5" id="Rectangle 1"></path>
                <path d="M0,10.5 L0,17.5 L34,17.5 L34,10.5 L0,10.5 Z M0,10.5" id="Rectangle 1"></path>
                <path d="M0,21 L0,28 L34,28 L34,21 L0,21 Z M0,21" id="Rectangle 1"></path>
            </g>
            <g id="home" transform="translate(200.000000, 200.000000)" fill="#FFFFFF">
                <path d="M65.8876403,44.1410771 L56.0717538,34.202492 L56.0717538,19.2946144 L49.5278295,19.2946144 L49.5278295,27.5767687 L39.711943,17.6381836 L13.5362457,44.1410771 L13.5362457,45.797508 L20.08017,45.797508 L20.08017,62.3618164 L36.4399808,62.3618164 L36.4399808,52.4232313 L42.9839052,52.4232313 L42.9839052,62.3618164 L59.343716,62.3618164 L59.343716,45.797508 L65.8876403,45.797508 L65.8876403,44.1410771 Z M65.8876403,44.1410771" id="Shape"></path>
            </g>
            <g id="about" transform="translate(0.000000, 200.000000)" fill="#FFFFFF">
                <path d="M30.3137949,40 C32.0446205,40 33.4465109,41.4194141 33.4465109,43.171875 L33.4465109,55.859375 C33.4465109,57.6118359 32.0446205,59.03125 30.3137949,59.03125 L27.1810788,59.03125 L27.1810788,65.375 L52.2428072,65.375 L52.2428072,59.03125 L49.122622,59.03125 C47.3964955,59.03125 45.9773751,57.6118359 45.9773751,55.859375 L45.9711097,33.65625 L27.1810788,33.65625 L27.1810788,40 L30.3137949,40 L30.3137949,40 Z M33.4465109,20.96875 C33.4465109,24.4723064 36.2516404,27.3125 39.711943,27.3125 C43.1722456,27.3125 45.9773751,24.4723064 45.9773751,20.96875 C45.9773751,17.4651936 43.1722456,14.625 39.711943,14.625 C36.2516404,14.625 33.4465109,17.4651936 33.4465109,20.96875 L33.4465109,20.96875 Z M33.4465109,20.96875" id="Shape"></path>
            </g>
            <g id="work" transform="translate(200.000000, 0.000000)" fill="#FFFFFF">
                <path d="M56.2568666,52.7600439 L48.1512699,29.2095915 C45.9194337,22.7292132 38.9943761,19.1472319 32.4319677,20.9167385 L26.3344448,8.9344839 C25.782755,7.85051465 24.4884058,7.43450484 23.4428957,8.00676247 C22.3973856,8.5829263 21.9961566,9.92665754 22.5478464,11.0106268 L28.5006954,22.7077291 C23.7573203,25.8951846 21.2901479,31.9361159 22.8526261,37.6235365 L29.4574722,61.673982 C31.3150851,68.4336532 38.9635123,71.8769645 46.6524482,69.4961384 C54.2410768,66.7969573 58.5388563,59.3790921 56.2568666,52.7600439 L56.2568666,52.7600439 Z M36.1857733,35.635283 C33.9365763,36.3813663 31.5234156,35.0981811 30.800046,32.7564169 C30.0786055,30.418559 31.3189431,27.9166408 33.5719981,27.1686043 C35.8250531,26.4186148 38.2382138,27.7057062 38.9615833,30.0435642 C39.6849529,32.3814222 38.4426863,34.8852935 36.1857733,35.635283 L36.1857733,35.635283 Z M36.1857733,35.635283" id="Shape"></path>
            </g>
            <g id="contact" fill="#FFFFFF">
                <path d="M64.2154193,17.6531512 C63.2500985,17.9919264 15.398023,34.7054167 14.4556022,35.0354606 C13.6558657,35.3148628 13.4744277,35.9993982 14.4274176,36.3730986 C15.5583226,36.8236347 25.1269762,40.6235046 25.1269762,40.6235046 L25.1234531,40.6235046 L31.4684991,43.1433632 C31.4684991,43.1433632 62.01174,20.9064406 62.4257005,20.6060832 C62.8396611,20.3039796 63.3223214,20.8715153 63.0210991,21.1963204 C62.7198767,21.5228717 40.8363378,44.9839252 40.8363378,44.9839252 L40.8328148,44.9839252 L39.5592256,46.3914138 L41.2467753,47.2907396 C41.2467753,47.2907396 54.3525895,54.2845259 55.2862026,54.7839574 C56.1035544,55.2205233 57.1692826,54.8573004 57.4053282,53.84796 C57.6836506,52.6570081 65.4238317,19.5880115 65.596462,18.8563269 C65.8219384,17.8993744 65.1860246,17.314376 64.2154193,17.6531512 L64.2154193,17.6531512 Z M31.4121301,58.2415596 C31.4121301,58.9313338 31.8031906,59.1216765 32.3457432,58.6362152 C33.0503568,57.9988289 40.3748159,51.4835189 40.3748159,51.4835189 L31.4121301,46.8838602 L31.4121301,58.2415596 L31.4121301,58.2415596 Z M31.4121301,58.2415596" id="Shape"></path>
            </g>
        </g>
    </g>
</svg>